<svg width="89" height="89" viewBox="0 0 89 89" fill="none" xmlns="http://www.w3.org/2000/svg">
<path d="M48.5498 56.65V24.25" stroke="#32E5EB" stroke-width="7" stroke-linecap="round"/>
<path d="M40.4501 64.7499C44.9236 64.7499 48.5501 61.1234 48.5501 56.6499C48.5501 52.1764 44.9236 48.5499 40.4501 48.5499C35.9766 48.5499 32.3501 52.1764 32.3501 56.6499C32.3501 61.1234 35.9766 64.7499 40.4501 64.7499Z" stroke="#32E5EB" stroke-width="7"/>
<path d="M60.6998 36.4C57.4774 36.4 54.387 35.1199 52.1085 32.8413C49.8299 30.5628 48.5498 27.4724 48.5498 24.25" stroke="#32E5EB" stroke-width="7" stroke-linecap="round"/>
<path d="M68.7998 85.0001V56.6501M68.7998 56.6501L78.9248 66.7751M68.7998 56.6501L58.6748 66.7751" stroke="#32E5EB" stroke-width="7" stroke-linecap="round" stroke-linejoin="round"/>
<path d="M52.6 84.19C49.9837 84.7206 47.2743 85 44.5 85C22.1319 85 4 66.8682 4 44.5C4 37.125 5.97235 30.2035 9.4189 24.25M84.19 52.6C84.7206 49.9837 85 47.2743 85 44.5C85 22.1319 66.8682 4 44.5 4C37.125 4 30.2035 5.97235 24.25 9.4189" stroke="#32E5EB" stroke-width="7" stroke-linecap="round"/>
</svg>
