<svg width="103" height="69" viewBox="0 0 103 69" fill="none" xmlns="http://www.w3.org/2000/svg">
<path d="M83.0438 25.9217C81.6022 18.616 77.6689 12.0375 71.9157 7.30977C66.1626 2.58201 58.9465 -0.00168337 51.5 8.2287e-07C39.0971 8.2287e-07 28.325 7.03833 22.9604 17.3383C16.6527 18.02 10.8193 21.0086 6.58122 25.7299C2.34313 30.4513 -0.000736887 36.5722 1.73781e-07 42.9167C1.73781e-07 57.1221 11.5446 68.6667 25.75 68.6667H81.5417C93.3867 68.6667 103 59.0534 103 47.2083C103 35.8783 94.2021 26.6942 83.0438 25.9217ZM81.5417 60.0834H25.75C16.2654 60.0834 8.58333 52.4013 8.58333 42.9167C8.58333 34.1188 15.1496 26.78 23.8617 25.8788L28.4538 25.4067L30.5996 21.3296C32.5732 17.4876 35.5688 14.2647 39.2564 12.0158C42.944 9.76687 47.1807 8.57912 51.5 8.58334C62.7442 8.58334 72.4433 16.5658 74.6321 27.5954L75.9196 34.0329L82.4858 34.505C85.712 34.722 88.7363 36.153 90.9499 38.5099C93.1636 40.8669 94.4023 43.9749 94.4167 47.2083C94.4167 54.2896 88.6229 60.0834 81.5417 60.0834ZM34.3333 38.625H45.2771V51.5H57.7229V38.625H68.6667L51.5 21.4583L34.3333 38.625Z" fill="#32E5EB"/>
</svg>
